# xmcd CD database file
#
# Track frame offsets:
#	150
#	21742
#	50482
#	67897
#	100770
#
# Disc length: 4440 seconds
#
# Revision: 0
# Processed by: cddbd v1.5PL3 Copyright (c) Steve Scherf et al.
# Submitted via: CDex 1.50beta10
#
DISCID=3e115605
DTITLE=光永亮太 - いつか君が
DYEAR=2003
DGENRE=Ballad
TTITLE0=いつか君が
TTITLE1=小さな世界
TTITLE2=Re-wind
TTITLE3=いつか君が(Instrumental)
TTITLE4=DATA
EXTD=YEAR: 2003
EXTT0=
EXTT1=
EXTT2=
EXTT3=
EXTT4=
PLAYORDER=
